<?xml version="1.0" standalone="no"?>
<!DOCTYPE svg PUBLIC "-//W3C//DTD SVG 20010904//EN"
 "http://www.w3.org/TR/2001/REC-SVG-20010904/DTD/svg10.dtd">
<svg version="1.0" xmlns="http://www.w3.org/2000/svg"
 width="996.000000pt" height="1149.000000pt" viewBox="0 0 996.000000 1149.000000"
 preserveAspectRatio="xMidYMid meet">
<metadata>
Created by potrace 1.15, written by Peter Selinger 2001-2017
</metadata>
<g transform="translate(0.000000,1149.000000) scale(0.100000,-0.100000)"
fill="#000000" stroke="none">
<path d="M4936 11465 c-21 -14 -59 -37 -84 -51 -26 -14 -76 -42 -112 -63 -159
-92 -410 -237 -465 -269 -33 -18 -89 -51 -125 -72 -36 -21 -90 -53 -120 -69
-56 -32 -70 -40 -178 -104 -35 -20 -65 -37 -67 -37 -3 0 -121 -69 -155 -90 -8
-6 -40 -24 -70 -40 -30 -17 -80 -46 -110 -65 -30 -18 -77 -45 -105 -60 -27
-15 -62 -36 -77 -46 -14 -11 -28 -19 -31 -19 -6 0 -167 -92 -367 -210 -36 -21
-92 -54 -125 -72 -33 -19 -104 -60 -157 -91 -54 -31 -100 -57 -103 -57 -2 0
-29 -16 -59 -35 -30 -19 -59 -35 -65 -35 -5 0 -16 -6 -23 -13 -13 -12 -46 -33
-173 -104 -33 -18 -67 -38 -75 -43 -13 -9 -240 -139 -395 -228 -33 -18 -89
-51 -125 -72 -36 -21 -92 -54 -125 -73 -33 -18 -98 -56 -145 -83 -47 -27 -97
-55 -112 -64 -15 -8 -81 -46 -145 -84 -65 -38 -145 -85 -178 -104 -33 -18 -89
-51 -125 -72 -36 -21 -90 -52 -120 -69 -65 -36 -94 -53 -177 -103 -34 -21 -64
-38 -67 -38 -4 0 -118 -66 -156 -90 -8 -6 -40 -24 -70 -40 -30 -17 -74 -42
-97 -56 l-43 -25 0 -2874 0 -2874 43 -25 c23 -14 67 -39 97 -56 30 -16 62 -34
70 -40 34 -21 168 -99 205 -119 22 -11 63 -34 90 -51 28 -17 75 -44 105 -61
30 -16 84 -48 120 -69 36 -21 92 -54 125 -72 33 -19 116 -67 185 -107 69 -41
140 -82 158 -92 18 -11 66 -38 105 -61 40 -23 99 -57 132 -76 33 -18 89 -51
125 -72 36 -21 90 -53 120 -70 30 -17 76 -43 101 -58 26 -15 98 -56 160 -92
63 -36 122 -69 131 -75 10 -5 68 -39 130 -75 62 -35 119 -70 126 -77 7 -7 18
-13 23 -13 6 0 35 -16 65 -35 30 -19 57 -35 59 -35 3 0 49 -26 103 -57 53 -31
124 -72 157 -91 33 -18 89 -51 125 -72 146 -86 254 -148 350 -202 25 -14 99
-58 165 -97 66 -39 145 -84 175 -101 30 -17 62 -34 70 -40 36 -23 152 -90 156
-90 2 0 25 -13 51 -29 60 -37 123 -73 193 -112 30 -16 84 -48 120 -69 36 -21
92 -54 125 -72 33 -19 137 -79 230 -133 94 -54 197 -114 230 -133 33 -18 89
-51 125 -72 132 -79 117 -74 153 -51 18 11 63 37 100 58 93 51 146 82 267 153
8 5 95 55 192 112 98 57 206 120 240 140 35 20 79 45 98 55 19 11 69 39 110
63 41 24 102 59 135 78 33 18 89 51 125 72 36 21 90 53 120 70 30 17 107 61
170 98 157 92 143 85 255 148 55 32 125 71 155 88 30 16 57 33 58 38 2 4 8 8
12 8 5 0 33 14 62 31 29 18 78 45 108 62 30 17 67 38 82 49 14 10 29 18 33 18
4 0 19 8 33 18 25 18 66 41 202 115 30 17 57 33 60 37 3 4 30 20 60 37 49 27
144 82 188 108 10 6 88 51 175 100 86 50 185 107 219 127 35 20 88 51 118 68
30 17 87 49 125 72 39 22 90 52 115 65 25 14 61 34 80 46 19 12 47 29 62 37
15 8 51 29 80 46 29 17 114 66 188 109 74 43 160 93 190 111 30 18 66 39 80
46 14 7 43 23 64 36 22 13 58 34 80 47 23 12 73 41 111 63 39 23 95 55 125 72
30 17 84 49 120 70 36 21 82 48 103 60 l37 20 0 2875 0 2875 -37 20 c-21 12
-67 39 -103 60 -36 21 -90 53 -120 70 -30 17 -86 49 -125 72 -38 22 -88 51
-111 63 -22 13 -58 34 -80 47 -21 13 -50 29 -64 36 -14 7 -50 28 -80 46 -30
18 -116 68 -190 111 -74 43 -159 92 -188 109 -29 17 -65 38 -80 46 -15 8 -49
29 -77 45 -27 17 -61 36 -75 43 -14 7 -59 33 -100 57 -41 24 -100 58 -130 75
-30 17 -83 48 -118 68 -34 20 -133 78 -219 127 -87 50 -165 95 -175 100 -48
29 -135 79 -185 107 -32 17 -60 34 -63 38 -3 4 -30 20 -60 37 -138 75 -177 97
-199 115 -13 10 -28 18 -33 18 -6 0 -22 8 -36 18 -15 11 -52 32 -82 49 -30 17
-79 44 -108 62 -29 17 -57 31 -62 31 -4 0 -10 4 -12 8 -1 5 -28 22 -58 39 -30
17 -81 46 -113 64 -32 19 -82 48 -112 64 -75 42 -284 163 -358 207 -34 20 -87
51 -117 68 -30 17 -84 48 -120 69 -141 82 -217 126 -250 144 -19 10 -63 35
-98 55 -34 20 -142 83 -240 140 -97 57 -184 107 -192 112 -13 8 -56 33 -172
100 -14 8 -53 29 -86 47 -33 18 -77 44 -97 58 -21 14 -41 25 -45 25 -4 0 -24
-11 -44 -25z m102 -176 c31 -16 86 -47 122 -68 136 -79 407 -236 465 -269 33
-18 89 -51 125 -72 57 -34 99 -58 208 -120 15 -8 45 -26 67 -39 39 -24 68 -40
170 -96 28 -15 66 -38 85 -50 39 -25 97 -59 180 -105 30 -16 84 -48 120 -70
36 -21 90 -53 120 -70 30 -16 62 -34 70 -40 15 -9 160 -92 275 -158 33 -18 89
-51 125 -72 36 -21 90 -53 120 -70 30 -17 75 -42 99 -55 24 -14 49 -29 55 -33
6 -5 36 -23 66 -39 30 -17 111 -63 180 -104 69 -40 150 -86 180 -103 30 -16
57 -33 58 -38 2 -4 8 -8 12 -8 5 0 33 -14 62 -31 29 -18 78 -45 108 -62 30
-17 67 -38 82 -49 14 -10 28 -18 31 -18 2 0 44 -23 93 -52 49 -28 114 -65 144
-82 30 -16 57 -32 60 -36 3 -4 30 -20 60 -37 80 -43 392 -221 410 -233 8 -5
38 -22 65 -36 28 -15 52 -30 55 -34 3 -4 28 -19 55 -34 28 -15 79 -45 115 -66
36 -21 92 -53 125 -70 32 -18 70 -40 83 -51 14 -10 28 -19 32 -19 7 0 108 -57
160 -90 8 -6 41 -23 73 -40 l57 -30 0 -2795 0 -2795 -57 -30 c-32 -17 -87 -49
-123 -70 -36 -22 -81 -48 -100 -57 -19 -10 -43 -24 -52 -32 -17 -13 -18 89
-18 2132 l0 2147 -480 0 -480 0 0 -861 0 -860 -577 3 c-559 4 -581 5 -658 26
-210 58 -328 168 -403 376 -54 149 -87 370 -117 781 -27 385 -51 515 -123 667
-131 279 -327 471 -627 614 -210 101 -419 153 -734 184 -306 30 -671 -12 -931
-107 -52 -19 -103 -37 -112 -40 -17 -5 -18 27 -18 581 l0 586 -450 0 -450 0
-2 -787 -3 -788 -833 -3 -832 -2 0 790 0 791 -344 -3 c-328 -3 -344 -2 -329
15 9 9 20 17 25 17 5 0 84 44 176 97 92 53 192 110 222 127 30 16 57 32 60 36
3 4 30 20 60 36 30 17 95 54 144 82 49 29 91 52 93 52 3 0 17 8 31 18 25 18
66 41 202 115 30 17 57 33 60 37 3 4 31 21 63 38 62 35 153 87 177 102 21 13
117 69 165 95 50 27 156 88 238 137 34 20 87 51 117 67 83 46 140 80 191 112
25 16 48 29 51 29 5 0 114 62 158 90 8 6 40 24 70 41 30 16 84 48 120 69 36
21 90 53 120 70 143 80 171 97 182 108 7 7 16 12 20 12 5 0 52 26 106 57 53
31 124 72 157 91 33 18 89 51 125 72 36 21 90 53 120 70 91 51 132 74 185 105
28 17 62 37 77 45 15 8 109 62 207 120 175 102 293 169 299 170 1 0 28 -14 60
-31z m-4284 -2414 c-4 -8 -10 -15 -15 -15 -5 0 -9 -829 -9 -1990 l0 -1990 450
0 450 0 0 885 0 885 825 0 c454 0 828 1 833 3 11 3 14 -1614 3 -1627 -13 -15
3 -249 24 -351 94 -460 429 -832 910 -1010 122 -46 290 -89 450 -116 154 -27
546 -37 721 -20 133 13 320 45 389 65 l45 14 10 -42 c22 -91 34 -125 70 -208
144 -334 445 -578 830 -674 165 -41 312 -45 1458 -42 589 2 1072 2 1072 0 0
-1 -10 -7 -22 -13 -13 -5 -48 -25 -78 -44 -30 -19 -80 -48 -110 -65 -30 -16
-62 -34 -70 -40 -34 -22 -152 -90 -156 -90 -2 0 -27 -14 -56 -31 -29 -18 -71
-42 -93 -54 -41 -23 -101 -58 -215 -125 -36 -21 -92 -54 -125 -72 -33 -19
-104 -60 -157 -91 -54 -31 -100 -57 -102 -57 -3 0 -42 -23 -88 -51 -46 -28
-103 -62 -128 -76 -25 -13 -74 -42 -110 -63 -36 -21 -90 -53 -120 -69 -30 -17
-71 -40 -90 -52 -19 -11 -51 -29 -70 -40 -19 -11 -57 -33 -85 -49 -27 -16 -75
-43 -105 -60 -30 -17 -84 -49 -120 -70 -36 -21 -90 -53 -120 -69 -30 -17 -84
-49 -120 -71 -36 -21 -89 -51 -117 -65 -29 -15 -55 -30 -58 -35 -3 -5 -29 -20
-58 -35 -28 -14 -81 -44 -117 -65 -36 -22 -90 -54 -120 -71 -30 -16 -84 -48
-120 -69 -36 -21 -90 -53 -120 -70 -30 -17 -76 -43 -101 -58 -26 -15 -98 -56
-160 -91 -63 -35 -130 -74 -149 -86 -42 -27 -107 -64 -175 -101 -27 -14 -51
-30 -53 -35 -2 -5 -8 -9 -13 -9 -7 0 -145 -78 -409 -231 -36 -21 -91 -52 -123
-69 l-58 -31 -60 33 c-46 25 -329 188 -429 248 -8 5 -44 25 -79 46 -62 36 -89
51 -201 114 -30 17 -84 49 -120 70 -36 21 -94 55 -130 75 -36 19 -103 58 -149
85 -46 28 -87 50 -90 50 -4 0 -17 8 -31 18 -24 17 -85 53 -190 112 -30 17 -84
49 -120 70 -36 21 -92 54 -124 72 -32 18 -66 38 -75 43 -9 6 -52 30 -96 54
-44 24 -91 52 -105 61 -14 10 -47 30 -75 45 -140 80 -175 100 -232 133 -89 53
-192 112 -238 137 -48 26 -144 82 -165 95 -24 15 -115 67 -178 102 -31 17 -59
34 -62 38 -3 4 -30 20 -60 37 -76 42 -183 103 -343 195 -40 23 -97 55 -127 71
-30 17 -57 33 -60 37 -3 3 -134 80 -292 170 -158 91 -315 182 -350 202 -35 20
-88 51 -118 68 -30 17 -86 50 -125 72 -38 23 -83 48 -100 57 -16 9 -52 30 -80
46 -66 40 -92 54 -164 93 l-61 32 0 2794 0 2794 53 27 c28 15 59 33 67 40 8 6
29 19 45 27 32 17 110 61 235 133 41 24 101 57 132 74 31 17 59 35 63 41 9 15
15 12 9 -5z m4464 -1640 c195 -29 315 -80 420 -180 101 -95 142 -195 177 -425
17 -115 51 -570 43 -570 -8 0 -662 166 -813 206 -453 121 -618 202 -679 333
-18 39 -21 65 -21 171 0 116 2 129 28 181 71 146 221 248 413 283 105 19 311
20 432 1z m-566 -1744 c117 -33 313 -85 436 -116 442 -110 617 -183 756 -315
102 -97 141 -216 118 -365 -47 -302 -383 -473 -891 -452 -449 18 -732 197
-849 536 -13 38 -16 113 -19 452 l-4 407 120 -44 c66 -24 216 -70 333 -103z
m3848 -1481 l0 -620 -557 0 c-344 0 -593 4 -648 11 -230 28 -380 118 -458 274
-46 94 -61 177 -60 335 1 221 43 351 147 456 77 76 194 130 334 154 26 4 316
8 645 9 l597 1 0 -620z"/>
</g>
</svg>
